<svg xmlns="http://www.w3.org/2000/svg" width="854.079" height="732.917" viewBox="0 0 854.079 732.917">
  <g id="Group_6" data-name="Group 6" transform="translate(-935.428 -219.583)">
    <line id="fL" x1="85" y2="63" transform="translate(1265 709.5)" fill="none" stroke="#707070" stroke-width="10"/>
    <g id="statick">
      <path id="Path_1" data-name="Path 1" d="M3329.169,950.768V244.583h312.368" transform="translate(-2159)" fill="none" stroke="#707070" stroke-width="50"/>
      <path id="Path_2" data-name="Path 2" d="M3508.882,244.583V375.238" transform="translate(-2159)" fill="none" stroke="#707070" stroke-width="20"/>
      <path id="Path_3" data-name="Path 3" d="M0,6S202.9-9.168,388.235-10.473,741.34.779,741.34.779L852,0" transform="translate(936.5 897.5)" fill="none" stroke="#707070" stroke-linecap="round" stroke-width="2"/>
      <path id="Path_35" data-name="Path 35" d="M0,0H474" transform="translate(1035.5 950.5)" fill="none" stroke="#707070" stroke-width="3"/>
      <g id="_x33_8_Scarecrow" transform="translate(1676.628 818.974)">
        <g id="Group_1" data-name="Group 1" transform="translate(36.872 8.76)">
          <path id="Path_4" data-name="Path 4" d="M43.8,39.016H37.609a.737.737,0,0,0,0,1.474H43.8a4.042,4.042,0,0,0,2.589-.936v.923a2.648,2.648,0,0,0,3.626,2.462l6.875-2.726-2.18,5.653a.737.737,0,0,0,1.376.531l2.786-7.225a.737.737,0,0,0-.96-.95L49.47,41.569a1.171,1.171,0,0,1-1.608-1.091V32.693a1.173,1.173,0,0,1,1.172-1.172H62.95a6.242,6.242,0,0,0,11.517-3.34V24.147a34.608,34.608,0,0,0,4.859-1.338.737.737,0,0,0,.053-1.368L73.5,18.817l1.989-5.539a2.66,2.66,0,0,0-1.532-3.365,14.819,14.819,0,0,0-11.462,0,2.659,2.659,0,0,0-1.532,3.365l1.989,5.539-5.882,2.624a.737.737,0,0,0,.053,1.368,34.617,34.617,0,0,0,4.859,1.338v4.035a6.276,6.276,0,0,0,.283,1.865H49.034a2.65,2.65,0,0,0-2.647,2.646V33.3a4.042,4.042,0,0,0-2.589-.936H37.609a.737.737,0,1,0,0,1.474H43.8a2.582,2.582,0,0,1,2.467,1.849h-6.73a.737.737,0,1,0,0,1.474h6.73A2.582,2.582,0,0,1,43.8,39.016ZM64.174,19.884a.737.737,0,0,0,.393-.922l-2.22-6.182a1.19,1.19,0,0,1,.7-1.5,13.4,13.4,0,0,1,10.356,0,1.19,1.19,0,0,1,.7,1.5l-2.22,6.182a.737.737,0,0,0,.394.922l4.756,2.122a30.657,30.657,0,0,1-17.609,0Zm8.818,4.521v3.776a4.77,4.77,0,1,1-9.539,0V24.405A31.037,31.037,0,0,0,72.992,24.405Z" transform="translate(-36.872 -8.76)" fill="#707070"/>
          <path id="Path_5" data-name="Path 5" d="M149.422,284.156a.738.738,0,0,0-.954.421l-.892,2.3a.737.737,0,1,0,1.374.533l.892-2.3A.737.737,0,0,0,149.422,284.156Z" transform="translate(-131.693 -244.707)" fill="#707070"/>
          <path id="Path_6" data-name="Path 6" d="M162.522,161.319h6.189a.737.737,0,1,0,0-1.474h-6.189a4.042,4.042,0,0,0-2.589.936v-.611a2.649,2.649,0,0,0-2.646-2.646H146.141a.737.737,0,0,0,0,1.474h11.146a1.173,1.173,0,0,1,1.172,1.172v7.785a1.171,1.171,0,0,1-1.608,1.091L148.41,165.7a.736.736,0,0,0-.959.95l8.519,22.094h-11.44L138.8,169.637a.737.737,0,0,0-1.413,0l-5.725,19.106h-11.44l1.457-3.782a.737.737,0,1,0-1.376-.53l-1.843,4.784a.737.737,0,0,0,.688,1h13.063a.738.738,0,0,0,.706-.526l5.176-17.275,5.177,17.275a.738.738,0,0,0,.706.526h13.063a.737.737,0,0,0,.687-1l-8.3-21.525,6.875,2.726a2.648,2.648,0,0,0,3.626-2.462v-.924a4.042,4.042,0,0,0,2.589.936h6.189a.737.737,0,1,0,0-1.474h-6.189a2.582,2.582,0,0,1-2.467-1.849h6.73a.737.737,0,1,0,0-1.474h-6.73A2.583,2.583,0,0,1,162.522,161.319Z" transform="translate(-106.747 -136.237)" fill="#707070"/>
          <path id="Path_7" data-name="Path 7" d="M135.961,310.278a.737.737,0,0,0-.737.737v25.41H116.658a.737.737,0,1,0,0,1.474h38.605a.737.737,0,1,0,0-1.474H136.7v-25.41A.737.737,0,0,0,135.961,310.278Z" transform="translate(-104.61 -267.134)" fill="#707070"/>
        </g>
      </g>
      <g id="flower" transform="translate(1017.811 924.389)">
        <path id="Path_8" data-name="Path 8" d="M113.027,226.724a.418.418,0,0,0-.6.1,26.054,26.054,0,0,0-3.883,9.031l-4.943-8.643a.418.418,0,1,0-.726.415L108.3,237.1a28.215,28.215,0,0,0-.4,4.766.429.429,0,0,0,.405.434.418.418,0,0,0,.43-.418,26.476,26.476,0,0,1,1.441-8.723,25.317,25.317,0,0,1,2.95-5.875A.417.417,0,0,0,113.027,226.724Z" transform="translate(-89.541 -214.194)" fill="#707070"/>
        <g id="Group_3" data-name="Group 3" transform="translate(8.077 6.888)">
          <g id="Group_2" data-name="Group 2" transform="translate(0)">
            <path id="Path_9" data-name="Path 9" d="M87.145,131.789C91.831,123.351,82.459,123.351,87.145,131.789Z" transform="translate(-81.525 -125.46)" fill="#ff70ea"/>
            <path id="Path_10" data-name="Path 10" d="M100.284,125.635c.8.512,1.29,2.2,0,5.056.158.351.343.719.557,1.1C103.566,126.889,101.538,124.835,100.284,125.635Z" transform="translate(-95.221 -125.466)" fill="#ff54e6"/>
            <path id="Path_11" data-name="Path 11" d="M13.692,240.871C4.041,241.032,8.727,249.149,13.692,240.871Z" transform="translate(-8.077 -234.534)" fill="#33b8ff"/>
            <path id="Path_12" data-name="Path 12" d="M20.223,241a7.866,7.866,0,0,1-3.382,3.386c.913.569,3,.043,5.134-3.519A13.98,13.98,0,0,0,20.223,241Z" transform="translate(-16.36 -234.534)" fill="#16abfa"/>
            <path id="Path_13" data-name="Path 13" d="M87.145,240.92C82.459,249.358,91.831,249.358,87.145,240.92Z" transform="translate(-81.525 -234.581)" fill="#7dffc6"/>
            <path id="Path_14" data-name="Path 14" d="M100.84,240.92c-.214.386-.4.754-.557,1.1,1.29,2.858.8,4.543,0,5.056C101.537,247.88,103.565,245.826,100.84,240.92Z" transform="translate(-95.22 -234.581)" fill="#51f0aa"/>
            <path id="Path_15" data-name="Path 15" d="M13.692,176.828C8.727,168.551,4.041,176.668,13.692,176.828Z" transform="translate(-8.077 -170.497)" fill="#bd31ff"/>
            <path id="Path_16" data-name="Path 16" d="M20.223,176.7a13.974,13.974,0,0,0,1.752.133c-2.136-3.562-4.221-4.088-5.134-3.519A7.866,7.866,0,0,1,20.223,176.7Z" transform="translate(-16.36 -170.498)" fill="#b120f5"/>
            <path id="Path_17" data-name="Path 17" d="M110.517,240.871C115.482,249.149,120.168,241.032,110.517,240.871Z" transform="translate(-104.892 -234.534)" fill="#ffe966"/>
            <path id="Path_18" data-name="Path 18" d="M110.517,240.871l.081.133c3.916.562,4.448,2.721,3.382,3.386C116.931,245.576,117.746,240.991,110.517,240.871Z" transform="translate(-104.892 -234.534)" fill="#fade3d"/>
            <path id="Path_19" data-name="Path 19" d="M110.517,176.828C120.168,176.668,115.482,168.551,110.517,176.828Z" transform="translate(-104.892 -170.497)" fill="#ff982b"/>
            <path id="Path_20" data-name="Path 20" d="M113.979,173.313c1.067.665.534,2.824-3.382,3.386l-.081.133C117.746,176.712,116.931,172.127,113.979,173.313Z" transform="translate(-104.892 -170.501)" fill="#ff8708"/>
          </g>
          <circle id="Ellipse_5" data-name="Ellipse 5" cx="0.899" cy="0.899" r="0.899" transform="translate(4.721 5.435)" fill="#f2f2f2"/>
          <path id="Path_21" data-name="Path 21" d="M102.7,224.453a.893.893,0,0,0-.449.121.9.9,0,0,1,0,1.555.9.9,0,1,0,.449-1.676Z" transform="translate(-97.077 -219.018)" fill="#ebebeb"/>
        </g>
        <g id="Group_5" data-name="Group 5" transform="translate(20.143 0)">
          <g id="Group_4" data-name="Group 4" transform="translate(0 0)">
            <path id="Path_22" data-name="Path 22" d="M366,116.351C375.193,123.543,376.966,112.35,366,116.351Z" transform="translate(-358.417 -109.12)" fill="#ff70ea"/>
            <path id="Path_23" data-name="Path 23" d="M428.5,115.515c2.956.362,3.143,2.732,1.174,3.226C433.732,119.521,433.892,114.964,428.5,115.515Z" transform="translate(-417.483 -109.129)" fill="#ff54e6"/>
            <path id="Path_24" data-name="Path 24" d="M303.234,7.223C304.867-4.333,294.287-.271,303.234,7.223Z" transform="translate(-295.657 0)" fill="#33b8ff"/>
            <path id="Path_25" data-name="Path 25" d="M309.378.3c.933.639,1.766,2.352,1.576,5.492a16.965,16.965,0,0,0,1.525,1.435c.9-6.343-1.886-7.98-3.1-6.928Z" transform="translate(-304.902 -0.005)" fill="#16abfa"/>
            <path id="Path_26" data-name="Path 26" d="M235.419,89.09C226.228,81.9,224.456,93.091,235.419,89.09Z" transform="translate(-227.847 -81.862)" fill="#7dffc6"/>
            <path id="Path_27" data-name="Path 27" d="M237,89.647a17.329,17.329,0,0,0,1.8-.555c-4.055-3.173-6.665-2.768-7.376-1.667C232.674,87.293,234.567,87.814,237,89.647Z" transform="translate(-231.235 -81.864)" fill="#51f0aa"/>
            <path id="Path_28" data-name="Path 28" d="M365.96,24.468C376.785,20.1,367.977,12.973,365.96,24.468Z" transform="translate(-358.377 -17.244)" fill="#bd31ff"/>
            <path id="Path_29" data-name="Path 29" d="M369.056,18.491c1.015.74.807,3.065-2.923,5.117-.062.277-.12.565-.173.867C373.38,21.484,371.575,17.192,369.056,18.491Z" transform="translate(-358.377 -17.251)" fill="#b120f5"/>
            <path id="Path_30" data-name="Path 30" d="M274.73,131.761C263.905,136.124,272.713,143.256,274.73,131.761Z" transform="translate(-267.155 -124.527)" fill="#ffe966"/>
            <path id="Path_31" data-name="Path 31" d="M286.186,132.333c-.725,3.516-2.114,5.12-3.272,5.536,1.221.547,3.616-.778,4.551-6.108C287,131.947,286.578,132.138,286.186,132.333Z" transform="translate(-279.891 -124.527)" fill="#fade3d"/>
            <path id="Path_32" data-name="Path 32" d="M362.918,131.779C361.284,143.335,371.865,139.273,362.918,131.779Z" transform="translate(-355.337 -124.544)" fill="#ff982b"/>
            <path id="Path_33" data-name="Path 33" d="M363.4,131.779c-.072.509-.12.986-.147,1.435,2.506,2.691,2.427,4.754,1.576,5.492C366.792,140.053,369.2,136.637,363.4,131.779Z" transform="translate(-355.817 -124.544)" fill="#ff8708"/>
          </g>
          <circle id="Ellipse_6" data-name="Ellipse 6" cx="1.087" cy="1.087" r="1.087" transform="translate(6.492 6.143)" fill="#f2f2f2"/>
          <path id="Path_34" data-name="Path 34" d="M356.459,111.888a1.082,1.082,0,0,0-.727.141,1.086,1.086,0,0,1,0,1.865,1.087,1.087,0,1,0,.727-2.006Z" transform="translate(-348.71 -105.732)" fill="#ebebeb"/>
        </g>
      </g>
    </g>
  </g>
</svg>
